<svg width="35" height="35" viewBox="0 0 35 35" fill="none" xmlns="http://www.w3.org/2000/svg">
<path d="M20.4165 5.83333H14.5832C9.08345 5.83333 6.33359 5.83333 4.62505 7.54187C3.39488 8.77204 3.05045 10.542 2.95401 13.4896H32.0457C31.9492 10.542 31.6048 8.77204 30.3746 7.54187C28.6661 5.83333 25.9162 5.83333 20.4165 5.83333Z" fill="#714DBD"/>
<path d="M14.5832 29.1667H20.4165C25.9162 29.1667 28.6661 29.1667 30.3746 27.4581C32.0832 25.7496 32.0832 22.9997 32.0832 17.5C32.0832 16.8555 32.0832 16.2488 32.0804 15.6771H2.91925C2.9165 16.2488 2.9165 16.8555 2.9165 17.5C2.9165 22.9997 2.9165 25.7496 4.62505 27.4581C6.33359 29.1667 9.08345 29.1667 14.5832 29.1667Z" fill="#714DBD"/>
<path fill-rule="evenodd" clip-rule="evenodd" d="M7.65609 23.3333C7.65609 22.7293 8.14578 22.2396 8.74984 22.2396H14.5832C15.1872 22.2396 15.6769 22.7293 15.6769 23.3333C15.6769 23.9374 15.1872 24.4271 14.5832 24.4271H8.74984C8.14578 24.4271 7.65609 23.9374 7.65609 23.3333Z" fill="white"/>
<path fill-rule="evenodd" clip-rule="evenodd" d="M17.1353 23.3333C17.1353 22.7293 17.6249 22.2396 18.229 22.2396H20.4165C21.0206 22.2396 21.5103 22.7293 21.5103 23.3333C21.5103 23.9374 21.0206 24.4271 20.4165 24.4271H18.229C17.6249 24.4271 17.1353 23.9374 17.1353 23.3333Z" fill="white"/>
</svg>
