<svg width="35" height="35" viewBox="0 0 35 35" fill="none" xmlns="http://www.w3.org/2000/svg">
<path fill-rule="evenodd" clip-rule="evenodd" d="M17.4998 32.0833C25.554 32.0833 32.0832 25.5541 32.0832 17.5C32.0832 9.44585 25.554 2.91667 17.4998 2.91667C9.44568 2.91667 2.9165 9.44585 2.9165 17.5C2.9165 25.5541 9.44568 32.0833 17.4998 32.0833ZM18.5936 8.75C18.5936 8.14594 18.1039 7.65625 17.4998 7.65625C16.8958 7.65625 16.4061 8.14594 16.4061 8.75V9.2119C14.0284 9.63764 12.0311 11.424 12.0311 13.8542C12.0311 16.65 14.6747 18.5937 17.4998 18.5937C19.5072 18.5937 20.7811 19.9146 20.7811 21.1458C20.7811 22.3771 19.5072 23.6979 17.4998 23.6979C15.4925 23.6979 14.2186 22.3771 14.2186 21.1458C14.2186 20.5418 13.7289 20.0521 13.1248 20.0521C12.5208 20.0521 12.0311 20.5418 12.0311 21.1458C12.0311 23.576 14.0284 25.3624 16.4061 25.7881V26.25C16.4061 26.8541 16.8958 27.3437 17.4998 27.3437C18.1039 27.3437 18.5936 26.8541 18.5936 26.25V25.7881C20.9713 25.3624 22.9686 23.576 22.9686 21.1458C22.9686 18.35 20.325 16.4062 17.4998 16.4062C15.4925 16.4062 14.2186 15.0854 14.2186 13.8542C14.2186 12.6229 15.4925 11.3021 17.4998 11.3021C19.5072 11.3021 20.7811 12.6229 20.7811 13.8542C20.7811 14.4582 21.2708 14.9479 21.8748 14.9479C22.4789 14.9479 22.9686 14.4582 22.9686 13.8542C22.9686 11.424 20.9713 9.63764 18.5936 9.2119V8.75Z" fill="#714DBD"/>
</svg>
