<svg width="35" height="36" viewBox="0 0 35 36" fill="none" xmlns="http://www.w3.org/2000/svg">
<path d="M26.979 4.45618H23.3332C22.9305 4.45618 22.604 4.78869 22.604 5.19887V5.28637L27.7082 9.44547V5.19887C27.7082 4.78869 27.3818 4.45618 26.979 4.45618Z" fill="#714DBD"/>
<path fill-rule="evenodd" clip-rule="evenodd" d="M15.677 14.1112C15.677 13.0858 16.4931 12.2545 17.4999 12.2545C18.5066 12.2545 19.3228 13.0858 19.3228 14.1112C19.3228 15.1367 18.5066 15.968 17.4999 15.968C16.4931 15.968 15.677 15.1367 15.677 14.1112Z" fill="#714DBD"/>
<path fill-rule="evenodd" clip-rule="evenodd" d="M30.2603 16.2806L31.3999 17.2092C31.8716 17.5936 32.5599 17.5157 32.9373 17.0353C33.3146 16.5548 33.2382 15.8537 32.7665 15.4694L20.9162 5.81326C18.9189 4.18578 16.0809 4.18578 14.0836 5.81326L2.23328 15.4694C1.76159 15.8537 1.68511 16.5548 2.06247 17.0353C2.43982 17.5157 3.12811 17.5936 3.5998 17.2092L4.73946 16.2806V31.5646H2.91654C2.31248 31.5646 1.82279 32.0634 1.82279 32.6786C1.82279 33.2939 2.31248 33.7927 2.91654 33.7927H32.0832C32.6873 33.7927 33.177 33.2939 33.177 32.6786C33.177 32.0634 32.6873 31.5646 32.0832 31.5646H30.2603V16.2806ZM13.4895 14.1112C13.4895 11.8552 15.285 10.0264 17.4999 10.0264C19.7148 10.0264 21.5103 11.8552 21.5103 14.1112C21.5103 16.3672 19.7148 18.1961 17.4999 18.1961C15.285 18.1961 13.4895 16.3672 13.4895 14.1112ZM17.5719 19.6814C18.5415 19.6814 19.3769 19.6813 20.0459 19.773C20.7629 19.8711 21.4501 20.0925 22.0076 20.6603C22.565 21.2281 22.7824 21.9281 22.8788 22.6584C22.9631 23.2972 22.9683 24.085 22.9686 24.9948C22.9686 25.0554 22.9686 25.1166 22.9686 25.1783L22.9686 31.5646H20.7811V25.2517C20.7811 24.1698 20.7788 23.4705 20.7108 22.9553C20.647 22.4721 20.544 22.3206 20.4608 22.2358C20.3775 22.151 20.2288 22.0461 19.7544 21.9812C19.2486 21.9119 18.562 21.9095 17.4999 21.9095C16.4378 21.9095 15.7512 21.9119 15.2453 21.9812C14.7709 22.0461 14.6222 22.151 14.539 22.2358C14.4557 22.3206 14.3527 22.4721 14.289 22.9553C14.2209 23.4705 14.2186 24.1698 14.2186 25.2517V31.5646H12.0311L12.0311 25.1783C12.0311 24.1907 12.031 23.3398 12.121 22.6584C12.2174 21.9281 12.4347 21.2281 12.9922 20.6603C13.5496 20.0925 14.2369 19.8711 14.9539 19.773C15.6229 19.6813 16.4583 19.6814 17.4279 19.6814H17.5719Z" fill="#714DBD"/>
<path fill-rule="evenodd" clip-rule="evenodd" d="M15.677 14.1112C15.677 13.0858 16.4931 12.2545 17.4999 12.2545C18.5066 12.2545 19.3228 13.0858 19.3228 14.1112C19.3228 15.1367 18.5066 15.968 17.4999 15.968C16.4931 15.968 15.677 15.1367 15.677 14.1112Z" fill="#714DBD"/>
</svg>
