<svg width="35" height="35" viewBox="0 0 35 35" fill="none" xmlns="http://www.w3.org/2000/svg">
<path fill-rule="evenodd" clip-rule="evenodd" d="M23.5328 6.89571L26.201 9.56393C30.1224 13.4854 32.0832 15.4461 32.0832 17.8826C32.0832 20.319 30.1224 22.2797 26.201 26.2012C22.2796 30.1226 20.3189 32.0833 17.8824 32.0833C15.4459 32.0833 13.4852 30.1226 9.56376 26.2012L6.89554 23.533C4.64164 21.2791 3.51469 20.1521 3.09535 18.69C2.67602 17.2278 3.03439 15.6749 3.75113 12.569L4.16446 10.7779C4.76745 8.16493 5.06895 6.85843 5.96361 5.96377C6.85827 5.06912 8.16476 4.76762 10.7777 4.16462L12.5689 3.75129C15.6747 3.03455 17.2277 2.67618 18.6898 3.09552C20.1519 3.51485 21.2789 4.6418 23.5328 6.89571ZM16.2554 20.8956C15.274 19.9142 15.2823 18.5061 15.8692 17.3901C15.5759 16.9641 15.6187 16.3763 15.9976 15.9974C16.3751 15.6199 16.9599 15.5761 17.3856 15.8659C17.8813 15.6025 18.4258 15.4632 18.9685 15.4683C19.5725 15.474 20.0576 15.9683 20.0519 16.5723C20.0462 17.1763 19.5519 17.6614 18.9479 17.6557C18.6899 17.6533 18.3508 17.769 18.06 18.0598C17.4948 18.625 17.6435 19.1901 17.8022 19.3488C17.9609 19.5076 18.526 19.6562 19.0912 19.091C20.2346 17.9477 22.2087 17.5682 23.4738 18.8332C24.4552 19.8147 24.4469 21.2228 23.86 22.3388C24.1533 22.7648 24.1105 23.3525 23.7316 23.7314C23.354 24.109 22.769 24.1528 22.3433 23.8628C21.677 24.2169 20.919 24.3496 20.1963 24.2011C19.6046 24.0795 19.2235 23.5013 19.3451 22.9096C19.4667 22.3179 20.045 21.9368 20.6367 22.0584C20.895 22.1115 21.3115 22.0267 21.6692 21.669C22.2343 21.1039 22.0857 20.5388 21.927 20.38C21.7683 20.2213 21.2031 20.0727 20.638 20.6378C19.4946 21.7812 17.5205 22.1607 16.2554 20.8956ZM14.6137 15.0108C15.7528 13.8718 15.7528 12.025 14.6137 10.886C13.4747 9.74698 11.628 9.74698 10.4889 10.886C9.34992 12.025 9.34992 13.8718 10.4889 15.0108C11.628 16.1498 13.4747 16.1498 14.6137 15.0108Z" fill="#714DBD"/>
</svg>
