<svg width="30" height="25" viewBox="0 0 30 25" fill="none" xmlns="http://www.w3.org/2000/svg">
<path d="M19.3471 4.82955H5.7341C4.53645 4.82955 4.04431 6.36654 5.01921 7.06219L8.58888 9.60934C8.79753 9.75822 9.04745 9.83825 9.30377 9.83825H27.6286C28.7765 9.83825 29.2995 8.40572 28.4215 7.66618L21.7471 2.04368C20.8838 1.31648 19.6599 2.3392 20.2221 3.31795C20.6084 3.99063 20.1229 4.82955 19.3471 4.82955Z" stroke="#FAFAFA" stroke-width="2"/>
<path d="M10.6529 20.86H24.2659C25.4635 20.86 25.9557 19.323 24.9808 18.6274L21.4111 16.0802C21.2025 15.9313 20.9525 15.8513 20.6962 15.8513H2.37139C1.22351 15.8513 0.700549 17.2838 1.57845 18.0234L8.25291 23.6459C9.11617 24.3731 10.3401 23.3503 9.77794 22.3716C9.39155 21.6989 9.87714 20.86 10.6529 20.86Z" stroke="#FAFAFA" stroke-width="2"/>
</svg>
