<svg width="26" height="26" viewBox="0 0 26 26" fill="none" xmlns="http://www.w3.org/2000/svg">
<path opacity="0.2" d="M13 26C20.1797 26 26 20.1797 26 13C26 5.8203 20.1797 0 13 0C5.8203 0 0 5.8203 0 13C0 20.1797 5.8203 26 13 26Z" fill="#898989"/>
<path fill-rule="evenodd" clip-rule="evenodd" d="M6.53536 7.10245C6.59233 7.03734 6.67462 7 6.76113 7H20.8389C21.0966 7 21.2344 7.30358 21.0646 7.49755L18.9646 9.89755C18.9077 9.96266 18.8254 10 18.7389 10H4.66113C4.40339 10 4.26563 9.69642 4.43536 9.50245L6.53536 7.10245ZM6.53536 17.1024C6.59233 17.0373 6.67462 17 6.76113 17H20.8389C21.0966 17 21.2344 17.3036 21.0646 17.4976L18.9646 19.8976C18.9077 19.9627 18.8254 20 18.7389 20H4.66113C4.40339 20 4.26563 19.6964 4.43536 19.5024L6.53536 17.1024ZM18.7389 12C18.8254 12 18.9077 12.0373 18.9646 12.1024L21.0646 14.5024C21.2344 14.6964 21.0966 15 20.8389 15H6.76113C6.67462 15 6.59233 14.9627 6.53536 14.8976L4.43536 12.4976C4.26563 12.3036 4.40339 12 4.66113 12H18.7389Z" fill="url(#paint0_linear_111_1236)"/>
<defs>
<linearGradient id="paint0_linear_111_1236" x1="21" y1="7" x2="4" y2="20" gradientUnits="userSpaceOnUse">
<stop stop-color="#03CD8D"/>
<stop offset="1" stop-color="#9547FC"/>
</linearGradient>
</defs>
</svg>
